<?xml version="1.0" standalone="no"?>
<!DOCTYPE svg PUBLIC "-//W3C//DTD SVG 20010904//EN"
 "http://www.w3.org/TR/2001/REC-SVG-20010904/DTD/svg10.dtd">
<svg version="1.0" xmlns="http://www.w3.org/2000/svg"
 width="292.000000pt" height="75.000000pt" viewBox="0 0 292.000000 75.000000"
 preserveAspectRatio="xMidYMid meet">

<g transform="translate(0.000000,75.000000) scale(0.100000,-0.100000)"
fill="#000000" stroke="none">
<path d="M175 736 c-129 -41 -192 -126 -165 -226 16 -60 74 -114 180 -169 129
-67 159 -95 160 -153 1 -79 -54 -113 -170 -106 -59 3 -88 11 -125 31 -26 15
-49 27 -51 27 -2 0 -4 -22 -4 -49 l0 -49 48 -19 c34 -13 74 -18 147 -18 88 0
107 3 150 26 83 42 119 121 95 210 -15 55 -73 112 -160 158 -112 58 -157 90
-170 122 -27 65 25 131 114 144 39 6 82 -1 174 -30 22 -7 23 -6 20 41 l-3 48
-50 13 c-62 16 -138 16 -190 -1z"/>
<path d="M2477 730 c-102 -32 -164 -88 -210 -188 -19 -40 -22 -65 -22 -172 0
-114 2 -130 26 -180 36 -77 80 -124 147 -157 51 -25 68 -28 157 -28 89 0 106
3 157 28 70 34 130 100 159 176 31 77 32 253 3 323 -46 111 -116 174 -226 204
-70 18 -121 17 -191 -6z m207 -84 c47 -20 103 -88 120 -147 20 -66 20 -190 1
-255 -31 -104 -113 -164 -226 -164 -108 1 -175 45 -223 150 -29 64 -29 216 0
280 38 83 92 131 169 151 37 10 118 2 159 -15z"/>
<path d="M652 388 c-72 -189 -134 -351 -137 -360 -6 -16 -1 -18 43 -18 l50 0
28 78 c15 42 31 87 36 100 8 22 9 22 160 20 l152 -3 35 -95 36 -95 48 -3 c34
-2 47 1 47 10 -1 7 -60 168 -133 358 l-133 345 -50 3 -51 3 -131 -343z m244
60 c30 -81 54 -150 54 -153 0 -3 -54 -5 -121 -5 -99 0 -120 3 -116 14 3 7 29
78 57 157 69 192 62 178 67 154 3 -11 29 -86 59 -167z"/>
<path d="M1190 690 c0 -39 1 -40 35 -40 l35 0 0 -280 0 -280 -35 0 c-34 0 -35
-1 -35 -40 l0 -40 115 0 115 0 0 40 c0 39 -1 40 -35 40 l-35 0 0 280 0 280 35
0 c34 0 35 1 35 40 l0 40 -115 0 -115 0 0 -40z"/>
<path d="M1550 370 l0 -360 45 0 45 0 2 163 3 162 180 0 180 0 3 -162 2 -163
45 0 45 0 0 360 0 360 -45 0 -44 0 -3 -157 -3 -158 -182 -3 -183 -2 0 160 0
160 -45 0 -45 0 0 -360z"/>
</g>
</svg>
