<?xml version="1.0" standalone="no"?>
<!DOCTYPE svg PUBLIC "-//W3C//DTD SVG 20010904//EN"
 "http://www.w3.org/TR/2001/REC-SVG-20010904/DTD/svg10.dtd">
<svg version="1.0" xmlns="http://www.w3.org/2000/svg"
 width="397.000000pt" height="102.000000pt" viewBox="0 0 397.000000 102.000000"
 preserveAspectRatio="xMidYMid meet">

<g transform="translate(0.000000,102.000000) scale(0.100000,-0.100000)"
fill="#ffffff" stroke="none">
<path d="M222 1004 c-92 -24 -150 -65 -190 -133 -23 -38 -27 -58 -27 -116 1
-127 46 -179 250 -289 180 -97 215 -132 215 -214 0 -145 -222 -188 -417 -83
l-53 29 0 -69 c0 -65 2 -69 27 -83 43 -21 166 -46 232 -46 113 0 214 33 274
89 84 77 95 225 26 320 -38 53 -95 94 -240 171 -147 78 -179 110 -179 181 0
61 19 93 74 122 34 18 57 22 136 22 82 0 103 -4 153 -27 l58 -27 -3 72 -3 72
-55 12 c-76 16 -215 14 -278 -3z"/>
<path d="M3370 1002 c-159 -42 -271 -160 -317 -335 -25 -93 -23 -254 5 -342
50 -165 160 -274 312 -309 178 -42 348 2 459 119 93 99 134 216 135 385 0 114
-16 186 -61 274 -30 60 -115 146 -171 175 -101 52 -241 64 -362 33z m273 -120
c87 -39 153 -131 178 -252 17 -83 6 -242 -21 -314 -59 -155 -230 -239 -391
-192 -148 43 -228 163 -237 358 -4 88 -1 118 16 175 40 129 119 211 237 244
48 13 169 3 218 -19z"/>
<path d="M1051 978 c-78 -198 -361 -944 -361 -950 0 -4 30 -8 68 -8 l67 0 46
133 46 132 205 3 205 2 50 -132 50 -133 72 -3 71 -3 -18 48 c-10 26 -94 247
-187 491 l-169 442 -68 0 c-62 0 -69 -2 -77 -22z m149 -338 c38 -102 73 -197
79 -212 l11 -28 -165 0 -164 0 40 112 c23 62 60 166 83 230 22 65 43 110 45
100 2 -9 34 -100 71 -202z"/>
<path d="M1610 945 l0 -55 50 0 50 0 0 -380 0 -380 -50 0 -50 0 0 -55 0 -55
160 0 160 0 0 55 0 55 -50 0 -50 0 0 380 0 380 50 0 50 0 0 55 0 55 -160 0
-160 0 0 -55z"/>
<path d="M2100 510 l0 -490 60 0 60 0 0 220 0 220 250 0 250 0 0 -220 0 -220
65 0 65 0 0 490 0 490 -65 0 -65 0 0 -215 0 -215 -250 0 -250 0 0 215 0 215
-60 0 -60 0 0 -490z"/>
</g>
</svg>
